<svg width="69" height="19" viewBox="0 0 69 19" fill="none" xmlns="http://www.w3.org/2000/svg">
<path d="M0 0.600011H3.12L9.072 8.66401L14.88 0.600011H18V18.48H14.712V6.33601L9.192 13.68H8.808L3.264 6.09601V18.48H0V0.600011Z" fill="white"/>
<path d="M20.4379 5.42401H23.5819V18.48H20.4379V5.42401Z" fill="white"/>
<path d="M31.8368 18.768C30.5888 18.768 29.4607 18.472 28.4527 17.88C27.4607 17.272 26.6768 16.448 26.1007 15.408C25.5247 14.368 25.2367 13.216 25.2367 11.952C25.2367 10.688 25.5247 9.53601 26.1007 8.49601C26.6768 7.45601 27.4688 6.64001 28.4767 6.04801C29.4847 5.44001 30.5968 5.13601 31.8127 5.13601C32.6447 5.13601 33.4048 5.28001 34.0928 5.56801C34.7808 5.84001 35.3568 6.23201 35.8208 6.74401V0.312012H38.9647V18.48H35.9888V17.04C35.5088 17.6 34.9088 18.032 34.1888 18.336C33.4688 18.624 32.6847 18.768 31.8368 18.768ZM28.5007 11.952C28.5007 12.704 28.6527 13.384 28.9567 13.992C29.2767 14.584 29.7168 15.048 30.2768 15.384C30.8368 15.72 31.4687 15.888 32.1727 15.888C32.8767 15.888 33.5008 15.72 34.0448 15.384C34.6048 15.048 35.0367 14.584 35.3407 13.992C35.6607 13.384 35.8208 12.704 35.8208 11.952C35.8208 11.2 35.6607 10.528 35.3407 9.93601C35.0367 9.32801 34.6048 8.85601 34.0448 8.52001C33.4847 8.18401 32.8607 8.01601 32.1727 8.01601C31.4687 8.01601 30.8368 8.19201 30.2768 8.54401C29.7168 8.88001 29.2767 9.35201 28.9567 9.96001C28.6527 10.552 28.5007 11.216 28.5007 11.952Z" fill="white"/>
<path d="M47.2417 18.768C45.9937 18.768 44.8657 18.472 43.8577 17.88C42.8657 17.272 42.0817 16.448 41.5057 15.408C40.9297 14.368 40.6418 13.216 40.6418 11.952C40.6418 10.688 40.9297 9.53601 41.5057 8.49601C42.0817 7.45601 42.8738 6.64001 43.8818 6.04801C44.8898 5.44001 46.0018 5.13601 47.2178 5.13601C48.0498 5.13601 48.8097 5.28001 49.4977 5.56801C50.1857 5.84001 50.7617 6.23201 51.2257 6.74401V0.312012H54.3698V18.48H51.3937V17.04C50.9137 17.6 50.3138 18.032 49.5938 18.336C48.8737 18.624 48.0897 18.768 47.2417 18.768ZM43.9058 11.952C43.9058 12.704 44.0578 13.384 44.3618 13.992C44.6818 14.584 45.1217 15.048 45.6818 15.384C46.2418 15.72 46.8738 15.888 47.5778 15.888C48.2817 15.888 48.9058 15.72 49.4497 15.384C50.0098 15.048 50.4417 14.584 50.7458 13.992C51.0658 13.384 51.2257 12.704 51.2257 11.952C51.2257 11.2 51.0658 10.528 50.7458 9.93601C50.4417 9.32801 50.0098 8.85601 49.4497 8.52001C48.8897 8.18401 48.2658 8.01601 47.5778 8.01601C46.8738 8.01601 46.2418 8.19201 45.6818 8.54401C45.1217 8.88001 44.6818 9.35201 44.3618 9.96001C44.0578 10.552 43.9058 11.216 43.9058 11.952Z" fill="white"/>
<path d="M56.5747 5.42401H59.5267V7.03201C59.8627 6.42401 60.3507 5.96001 60.9907 5.64001C61.6468 5.30401 62.3907 5.13601 63.2227 5.13601C64.1667 5.13601 65.0147 5.34401 65.7667 5.76001C66.5187 6.17601 67.1028 6.76001 67.5188 7.51201C67.9348 8.26401 68.1428 9.12001 68.1428 10.08V18.48H64.9987V10.824C64.9987 9.97601 64.7507 9.29601 64.2547 8.78401C63.7747 8.27201 63.1427 8.01601 62.3587 8.01601C61.5747 8.01601 60.9347 8.27201 60.4387 8.78401C59.9587 9.29601 59.7188 9.97601 59.7188 10.824V18.48H56.5747V5.42401Z" fill="white"/>
</svg>
